#N canvas 560 275 527 324 10;
#X obj 86 -54 bng 15 250 50 0 empty empty empty 17 7 0 10 -262144 -1
-1;
#X obj 146 -53 bng 15 250 50 0 empty empty empty 17 7 0 10 -262144
-1 -1;
#X obj 207 -54 bng 15 250 50 0 empty empty empty 17 7 0 10 -262144
-1 -1;
#X obj 268 -55 bng 15 250 50 0 empty empty empty 17 7 0 10 -262144
-1 -1;
#N canvas 15 370 450 300 array4 0;
#X obj 132 153 line~;
#X obj 135 109 hsl 128 15 0 488566 0 0 empty empty empty -2 -8 0 10
-262144 -1 -1 0 1;
#X floatatom 188 130 10 0 0 0 - - -;
#X obj 132 176 tabread4~ array4;
#X obj 132 63 inlet;
#X obj 131 224 outlet~;
#X obj 291 110 / 100;
#X obj 291 88 count 100;
#X obj 291 129 + 0.001;
#X floatatom 291 149 5 0 0 0 - - -;
#X obj 358 88 vsl 15 128 0 1 0 0 empty empty empty 0 -9 0 10 -262144
-1 -1 0 1;
#X obj 131 198 *~ 0.5;
#X obj 132 89 drunk 453600 60000 20000;
#X msg 132 131 \$1 800;
#X connect 0 0 3 0;
#X connect 1 0 13 0;
#X connect 1 0 2 0;
#X connect 3 0 11 0;
#X connect 4 0 7 0;
#X connect 4 0 12 0;
#X connect 6 0 8 0;
#X connect 7 0 6 0;
#X connect 8 0 9 0;
#X connect 9 0 10 0;
#X connect 11 0 5 0;
#X connect 12 0 1 0;
#X connect 13 0 0 0;
#X restore 268 -36 pd array4;
#N canvas 482 365 450 300 array3 1;
#X obj -1330 -403 line~;
#X obj -1327 -447 hsl 128 15 0 488566 0 0 empty empty empty -2 -8 0
10 -262144 -1 -1 0 1;
#X floatatom -1274 -426 10 0 0 0 - - -;
#X obj -1173 -435 / 100;
#X obj -1173 -457 count 100;
#X obj -1173 -416 + 0.001;
#X floatatom -1173 -396 5 0 0 0 - - -;
#X obj -1330 -380 tabread4~ array3;
#X obj -1111 -509 vsl 15 128 0 1 0 0 empty empty empty 0 -9 0 10 -262144
-1 -1 0 1;
#X obj -1330 -491 inlet;
#X obj -1330 -333 outlet~;
#X obj -1330 -467 drunk 453600 60000 20000;
#X msg -1330 -425 \$1 800;
#X obj -1330 -358 *~ 0.6;
#X connect 0 0 7 0;
#X connect 1 0 12 0;
#X connect 1 0 2 0;
#X connect 3 0 5 0;
#X connect 4 0 3 0;
#X connect 5 0 6 0;
#X connect 6 0 8 0;
#X connect 7 0 13 0;
#X connect 9 0 4 0;
#X connect 9 0 11 0;
#X connect 11 0 1 0;
#X connect 12 0 0 0;
#X connect 13 0 10 0;
#X restore 207 -36 pd array3;
#N canvas 779 328 450 331 array2 0;
#X obj 88 160 line~;
#X obj 91 116 hsl 128 15 0 488566 0 0 empty empty empty -2 -8 0 10
-262144 -1 -1 0 1;
#X floatatom 144 137 10 0 0 0 - - -;
#X msg 88 138 \$1 1000;
#X obj 88 183 tabread4~ array2;
#X obj 251 115 / 100;
#X floatatom 251 155 7 0 0 0 - - -;
#X obj 315 46 vsl 15 128 0 1 0 0 empty empty empty 0 -9 0 10 -262144
-1 -1 0 1;
#X obj 88 71 inlet;
#X obj 87 230 outlet~;
#X floatatom 348 125 5 0 0 0 - - -;
#X obj 348 151 + 0.08;
#X obj 251 93 count 100;
#X obj 88 96 drunk 453600 60000 20000;
#X obj 87 205 *~ 0.5;
#X connect 0 0 4 0;
#X connect 1 0 3 0;
#X connect 1 0 2 0;
#X connect 3 0 0 0;
#X connect 4 0 14 0;
#X connect 5 0 10 0;
#X connect 7 0 6 0;
#X connect 8 0 12 0;
#X connect 8 0 13 0;
#X connect 10 0 11 0;
#X connect 11 0 7 0;
#X connect 12 0 5 0;
#X connect 13 0 1 0;
#X connect 14 0 9 0;
#X restore 146 -35 pd array2;
#N canvas 798 215 450 276 array1 0;
#X obj 72 156 line~;
#X obj 75 108 hsl 128 15 0 488566 0 0 empty empty empty -2 -8 0 10
-262144 -1 -1 6204 1;
#X floatatom 126 131 10 0 0 0 - - -;
#X obj 226 106 / 100;
#X obj 226 125 + 0.001;
#X obj 73 200 *~ 0.5;
#X obj 293 85 vsl 15 128 0 1 0 0 empty empty empty 0 -9 0 10 -262144
-1 -1 2680 1;
#X floatatom 226 146 5 0 0 0 - - -;
#X obj 226 85 count 100;
#X obj 73 179 tabread4~ array1;
#X obj 73 61 inlet;
#X obj 73 228 outlet~;
#X obj 73 88 drunk 453600 60000 20000;
#X msg 70 131 \$1 800;
#X connect 0 0 9 0;
#X connect 1 0 13 0;
#X connect 1 0 2 0;
#X connect 3 0 4 0;
#X connect 4 0 7 0;
#X connect 5 0 11 0;
#X connect 7 0 6 0;
#X connect 8 0 3 0;
#X connect 9 0 5 0;
#X connect 10 0 8 0;
#X connect 10 0 12 0;
#X connect 12 0 1 0;
#X connect 13 0 0 0;
#X restore 86 -35 pd array1;
#N canvas 293 118 450 300 array5 0;
#X obj 132 153 line~;
#X obj 135 109 hsl 128 15 0 488566 0 0 empty empty empty -2 -8 0 10
-262144 -1 -1 0 1;
#X floatatom 188 130 10 0 0 0 - - -;
#X obj 132 63 inlet;
#X obj 131 224 outlet~;
#X obj 291 110 / 100;
#X obj 291 88 count 100;
#X obj 291 129 + 0.001;
#X floatatom 291 149 5 0 0 0 - - -;
#X obj 358 88 vsl 15 128 0 1 0 0 empty empty empty 0 -9 0 10 -262144
-1 -1 0 1;
#X obj 132 176 tabread4~ array5;
#X obj 131 198 *~ 0.5;
#X obj 132 89 drunk 453600 60000 20000;
#X msg 132 131 \$1 800;
#X connect 0 0 10 0;
#X connect 1 0 13 0;
#X connect 1 0 2 0;
#X connect 3 0 6 0;
#X connect 3 0 12 0;
#X connect 5 0 7 0;
#X connect 6 0 5 0;
#X connect 7 0 8 0;
#X connect 8 0 9 0;
#X connect 10 0 11 0;
#X connect 11 0 4 0;
#X connect 12 0 1 0;
#X connect 13 0 0 0;
#X restore 329 -36 pd array5;
#X obj 329 -55 bng 15 250 50 0 empty empty empty 17 7 0 10 -262144
-1 -1;
#X obj 390 -55 bng 15 250 50 0 empty empty empty 17 7 0 10 -262144
-1 -1;
#N canvas 313 23 516 326 loadSamples 1;
#X obj 181 85 soundfiler;
#N canvas 0 22 450 300 (subpatch) 0;
#X array array1 453600 float 2;
#X coords 0 1 453600 -1 100 50 1 0 0;
#X restore 32 -28 graph;
#X obj 181 42 openpanel;
#X obj 181 23 bng 15 250 50 0 empty empty empty 17 7 0 10 -262144 -1
-1;
#X obj 33 85 soundfiler;
#X obj 33 42 openpanel;
#X obj 33 24 bng 15 250 50 0 empty empty empty 17 7 0 10 -262144 -1
-1;
#N canvas 0 22 450 300 (subpatch) 0;
#X array array2 453600 float 2;
#X coords 0 1 453600 -1 100 50 1 0 0;
#X restore 180 -29 graph;
#X msg 33 64 read -resize \$1 array1;
#X msg 181 63 read -resize \$1 array2;
#N canvas 0 22 450 300 (subpatch) 0;
#X array array3 441275 float 2;
#X coords 0 1 441275 -1 100 50 1 0 0;
#X restore 324 -29 graph;
#X obj 325 85 soundfiler;
#X obj 325 42 openpanel;
#X obj 325 24 bng 15 250 50 0 empty empty empty 17 7 0 10 -262144 -1
-1;
#N canvas 0 22 450 300 (subpatch) 0;
#X array array4 453600 float 2;
#X coords 0 1 453600 -1 100 50 1 0 0;
#X restore 32 120 graph;
#X obj 33 234 soundfiler;
#X obj 33 191 openpanel;
#X obj 33 173 bng 15 250 50 0 empty empty empty 17 7 0 10 -262144 -1
-1;
#X msg 325 64 read -resize \$1 array3;
#X msg 33 213 read -resize \$1 array4;
#N canvas 0 22 450 300 (subpatch) 0;
#X array array5 453600 float 2;
#X coords 0 1 453600 -1 100 50 1 0 0;
#X restore 176 121 graph;
#X obj 177 235 soundfiler;
#X obj 177 192 openpanel;
#X obj 177 174 bng 15 250 50 0 empty empty empty 17 7 0 10 -262144
-1 -1;
#N canvas 0 22 450 300 (subpatch) 0;
#X array array6 453600 float 2;
#X coords 0 1 453600 -1 100 50 1 0 0;
#X restore 321 121 graph;
#X obj 322 237 soundfiler;
#X obj 322 194 openpanel;
#X obj 322 174 bng 15 250 50 0 empty empty empty 17 7 0 10 -262144
-1 -1;
#X msg 177 214 read -resize \$1 array5;
#X msg 322 216 read -resize \$1 array6;
#X connect 2 0 9 0;
#X connect 3 0 2 0;
#X connect 5 0 8 0;
#X connect 6 0 5 0;
#X connect 8 0 4 0;
#X connect 9 0 0 0;
#X connect 12 0 18 0;
#X connect 13 0 12 0;
#X connect 16 0 19 0;
#X connect 17 0 16 0;
#X connect 18 0 11 0;
#X connect 19 0 15 0;
#X connect 22 0 28 0;
#X connect 23 0 22 0;
#X connect 26 0 29 0;
#X connect 27 0 26 0;
#X connect 28 0 21 0;
#X connect 29 0 25 0;
#X restore 89 -154 pd loadSamples;
#N canvas 293 118 450 300 array6 0;
#X obj 132 153 line~;
#X obj 135 109 hsl 128 15 0 488566 0 0 empty empty empty -2 -8 0 10
-262144 -1 -1 0 1;
#X floatatom 188 130 10 0 0 0 - - -;
#X obj 132 63 inlet;
#X obj 131 224 outlet~;
#X obj 291 110 / 100;
#X obj 291 88 count 100;
#X obj 291 129 + 0.001;
#X floatatom 291 149 5 0 0 0 - - -;
#X obj 358 88 vsl 15 128 0 1 0 0 empty empty empty 0 -9 0 10 -262144
-1 -1 0 1;
#X obj 132 176 tabread4~ array6;
#X obj 131 198 *~ 0.4;
#X obj 132 89 drunk 453600 60000 20000;
#X msg 132 131 \$1 800;
#X connect 0 0 10 0;
#X connect 1 0 13 0;
#X connect 1 0 2 0;
#X connect 3 0 6 0;
#X connect 3 0 12 0;
#X connect 5 0 7 0;
#X connect 6 0 5 0;
#X connect 7 0 8 0;
#X connect 8 0 9 0;
#X connect 10 0 11 0;
#X connect 11 0 4 0;
#X connect 12 0 1 0;
#X connect 13 0 0 0;
#X restore 390 -36 pd array6;
#X obj 216 -176 notein;
#X obj 216 -152 stripnote;
#X floatatom 216 -132 3 0 0 0 - - -;
#X floatatom 267 -131 3 0 0 0 - - -;
#X obj 216 -112 select 0 1 2 3 4;
#X obj 205 59 dac~ 7 8;
#X connect 0 0 7 0;
#X connect 1 0 6 0;
#X connect 2 0 5 0;
#X connect 3 0 4 0;
#X connect 4 0 18 1;
#X connect 5 0 18 0;
#X connect 6 0 18 0;
#X connect 7 0 18 0;
#X connect 8 0 18 1;
#X connect 9 0 8 0;
#X connect 10 0 12 0;
#X connect 12 0 18 1;
#X connect 13 0 14 0;
#X connect 13 1 14 1;
#X connect 14 0 15 0;
#X connect 14 1 16 0;
#X connect 15 0 17 0;
#X connect 17 0 0 0;
#X connect 17 1 1 0;
#X connect 17 2 2 0;
#X connect 17 3 3 0;
#X connect 17 4 9 0;
#X connect 17 5 10 0;
